<?xml version="1.0" encoding="utf-8"?>
<!-- Generator: Adobe Illustrator 24.0.2, SVG Export Plug-In . SVG Version: 6.00 Build 0)  -->
<svg version="1.1" id="Layer_1" xmlns="http://www.w3.org/2000/svg" xmlns:xlink="http://www.w3.org/1999/xlink" x="0px" y="0px"
	 viewBox="0 0 15 20" style="enable-background:new 0 0 15 20;" xml:space="preserve">
<style type="text/css">
	.st0{fill:#6A4025;}
	.st1{fill:#FFFFFF;}
</style>
<path class="st0" d="M7.5,0L7.5,0C3.4,0,0,3.3,0,7.5c0,0,0,0,0,0c0,1.4,0.5,2.8,1.1,4L6,19.2C6.3,19.7,6.9,20,7.5,20
	c0.6,0,1.2-0.3,1.5-0.8l4.9-7.7c0.6-1.1,1.1-2.5,1.1-4C15,3.4,11.7,0,7.5,0C7.5,0,7.5,0,7.5,0z"/>
<circle class="st1" cx="7.5" cy="7" r="2.7"/>
</svg>
