<?xml version="1.0" encoding="utf-8"?>
<!-- Generator: Adobe Illustrator 24.0.2, SVG Export Plug-In . SVG Version: 6.00 Build 0)  -->
<svg version="1.1" id="Layer_1" xmlns="http://www.w3.org/2000/svg" xmlns:xlink="http://www.w3.org/1999/xlink" x="0px" y="0px"
	 viewBox="0 0 300 400" style="enable-background:new 0 0 300 400;" xml:space="preserve">
<style type="text/css">
	.st0{fill:#6A4025;}
	.st1{fill:#FFFFFF;}
</style>
<path class="st0" d="M150,0L150,0C67.3-0.1,0.1,66.9,0,149.6c0,0.1,0,0.3,0,0.4c0,28.9,9.2,56.6,22.1,79.3l97.8,154.1
	C126,394.5,138.4,400,150,400c12.3,0.1,23.7-6.2,30.1-16.6l97.8-154c13-22.7,22.1-49.8,22.1-79.3C300.1,67.4,233.1,0.1,150.4,0
	C150.2,0,150.1,0,150,0z"/>
<circle class="st1" cx="150" cy="139.6" r="54.8"/>
</svg>
