<?xml version="1.0" encoding="utf-8"?>
<!-- Generator: Adobe Illustrator 24.0.2, SVG Export Plug-In . SVG Version: 6.00 Build 0)  -->
<svg version="1.1" id="Layer_1" xmlns="http://www.w3.org/2000/svg" xmlns:xlink="http://www.w3.org/1999/xlink" x="0px" y="0px"
	 viewBox="0 0 1000 358.1" style="enable-background:new 0 0 1000 358.1;" xml:space="preserve">
<style type="text/css">
	.st0{fill:#6A4025;}
</style>
<path class="st0" d="M638.4,159.5c0.6,3,11.2,18.2,11.5,34.8c-5.4-13.8-18.2-30-18.2-34.2c0-4.2,4-18.5,3.3-24.7
	C637.2,143.5,637.8,156.5,638.4,159.5z M621.3,248.6c-0.2,4-3,6.8-7.9,17.3c-5,10.6,3.9,25.3,3.9,25.3s-0.5-13,0.9-20.5
	c1.4-7.5,16.8-19.4,16.8-19.4s-18.3-31.7-22.8-45.4C612,219.9,621.5,244.6,621.3,248.6z M629.3,208.6c0,0-10-23.1-10.3-25.9
	c-0.2-2.8,8.3-13.7,5.8-16.5c-2.5-2.8-10-15.2-9.1-20.3c-3.4,7,3.3,17.7,4.3,21.4c1,3.7-8.7,11.5-9.2,16.9
	C610.4,189.6,629.3,208.6,629.3,208.6z M691.5,165.9c4.3,0.6,6.5-1.7,7.3-1c0.8,0.7,16.8,16.9,16.8,16.9s-13.5-23.5-14.9-23.8
	c-1.4-0.3-6.7,0.8-7.9,0.5c-1.2-0.3-17.6-14.3-17.6-14.3C675.7,144.3,687.2,165.2,691.5,165.9z M484.9,86.7
	c4.5,2,16.2,15.9,16.2,15.9s-9.2-16.3-13.9-21.1c-4.7-4.9-9.3,0-11.5-3.1c-2.2-3.1-14.2-20-14.2-20c5.2,15.7,10.6,24.4,11.9,26.2
	C474.7,86.4,480.4,84.7,484.9,86.7z M732.4,185.7c2.5-1.9-14.1-15.8-19-19.3C721.4,179.4,729.9,187.6,732.4,185.7z M999.5,355.5
	c-0.8,1.6-2.5,2.6-4.2,2.6H4.8c-1.8,0-3.4-1-4.2-2.6c-0.8-1.6-0.7-3.5,0.4-5c0,0,4.3-6,10-14.2c5.8-8.3,13.9-20.3,19.6-29.8
	c8.5-14.1,22.9-24.1,32.5-30.8c3.2-2.2,5.9-4.1,7.4-5.5c4.5-4.1,12.3-10.6,19.1-15.7c4.4-3.3,8-5.8,10.9-7.5
	c2.4-1.5,6.8-5.2,12-10.2c10.9-10.6,19.1-20.7,20-22.9l0.7-1.7c2-5.4,4.1-11,9.7-15.1c1.2-0.9,2.4-1.9,3.6-3
	c0.7-0.6,1.4-1.2,2.2-1.9c3.4-2.9,7.7-6,14.4-8c11.7-3.4,16.2,2.2,22.4,9.9l1.9,2.3c4.2,5.2,18.5,10.5,28.4,13.2l49-65.8
	c0.4-0.5,0.9-1,1.4-1.3L346.8,96c0.3-0.4,0.5-0.8,0.8-1.2c6.2-10,32.3-51.3,49.4-61.5c16.9-10,23.4-18.2,30.1-30.6
	c0.7-1.3,2-2.3,3.6-2.5c14-1.9,39.6,9.5,52.4,20.5c7.3,6.3,14.3,14,21,21.4c5.3,5.8,10.3,11.3,14.8,15.4c8,7.3,29.4,17.8,37,21.4
	c12.3-9.9,31.6-24.6,39-24.3c8.8,0.2,17.4,2.7,28.5,8.6c7.1,3.7,8.8,5.5,13,10.2c2.5,2.8,6.3,7.1,14,14.4
	c5.6,5.2,12.4,10.4,21.6,16.1c4.6,2.9,9.2,5.6,13.6,8.2c9.5,5.6,17.7,10.4,22.9,15.4c0.2,0.2,0.5,0.5,0.7,0.8
	c16.9,25.3,35,41.2,48.4,42.7c2.4,0.3,4.5,0,6.2-0.8c12.4-5.4,45.9-25.2,46.3-25.4c2-1.2,4.5-0.8,6,1c13.4,15.4,34.6,39.3,38.2,42.3
	c1.2,1,2.6,1.5,4.3,2c3.7,1.2,9.4,3,10.2,11.6c0.5,4.9,8.5,19.5,14.4,29.1c1.7,0.7,4.9,2,8.8,3.4c7.6,2.8,18.6,6.5,27.9,8.2
	c2,0.4,3.6,2,3.9,4.1c0.7,5.3,4.1,10.1,8.9,16.6c2.3,3.2,4.9,6.8,7.6,11c3.3,5.2,7.1,8.9,11.6,13.1c6,5.6,12.7,12,20.5,23.9
	c0.1,0.2,0.4,0.6,0.6,0.9c13,19.9,26.1,38.1,26.2,38.2C1000.1,352,1000.3,353.9,999.5,355.5z M59.6,299.9
	c7.3-2.6,21.5-21.7,29.3-32.8c-4.7,3.7-9.2,7.5-12.1,10.2c-1.9,1.8-4.8,3.8-8.4,6.3c-8.9,6.2-22.3,15.6-29.8,27.9
	c-5.4,8.9-12.7,19.8-18.4,28.1C47.1,309.7,49.6,303.5,59.6,299.9z M170.1,233.3c-2.6,4-15.1,14.9-15.6,18.4
	c-0.5,3.5-1.1,6.5-3.3,10.4c-2.3,3.9-2.5,5.3-4.3,6.6c-1.9,1.3-8.7,1.7-16,8.5c-7.2,6.9-15.4,17.5-15.4,17.5s19.2-11.8,30-16.1
	c10.9-4.4,27.3-13.1,36.6-24.8c7.7-9.6,21.2-30,25.5-36.6c-7.7-2.4-18.6-6.5-25-11.9c0.3,3.8,1.9,12.6,8.7,21.1
	c-13-7.7-16.8-29.4-20.1-30.4c-3.2-1-6.1,3-12.2,0.2c-1.7,1-3.1,2.1-4.4,3.2c-0.7,0.6-1.4,1.2-2,1.8c-1.4,1.2-2.8,2.4-4.1,3.5
	c-3.4,2.5-4.7,6.2-6.5,10.9l-0.7,1.8c-2.2,6-16.8,21-22.2,26.3c-2.1,2.1-4.7,4.5-7.2,6.6c-1.7,4.1-3.7,8.7-5.6,12.2
	c-4.5,8.4-7.7,15.7-11.8,18.5c-4.1,2.8-10.5,15.4-12.2,19.5c-1.7,4.1-11.7,12.6-17.7,13.8c17.8-1.7,20.2-8.1,22.5-13
	c2.3-4.9,8.9-14.7,13.4-16.8c4.4-2.1,7-13.1,11.2-18.9c4.1-5.7,12.1-21.3,18.1-25.6c6-4.3,15.6-10.7,16.5-17.1
	c0.8-6.4,9.4-21.8,16.4-21.3c1.8,0.1-0.7,6.4-2.9,9.5c-2.2,3.1-4.7,8.4-2.4,9.9c2.3,1.6,8.8,2.7,11.2,4.1
	C170.9,226.8,172.7,229.3,170.1,233.3z M230.7,255.2c-25.9,14.7-40.8,40.4-42.9,44.6c-2.1,4.1-52.2,29.2-60.3,35.2
	c23.6-6,64-26.7,66.7-30C197,301.6,216.6,270,230.7,255.2z M235.3,215.1c13-17.4,37.6-54.4,41-57.8c3.4-3.4,39.6-25.9,39.6-25.9
	s-8.6,22.9-11.7,38.7c9.9-19.5,24.1-44,24.9-45.3c0.2-0.3,2.7-5,6.5-11.4l-49.1,28.4c-2.8,2.8-5.4,5.2-7.1,5.9
	c-4.7,2-7.6,4.8-10.3,9.2c-1.1,1.8-7.7,9.1-15,16.9l-32.8,44.1l0,0.1c-5.9,9.6-19.5,32.1-34.2,49.8
	C209.3,251.9,222.8,231.7,235.3,215.1z M288.6,168.1c-0.4-0.6-12.8,4.9-16.1,9.6s-18.7,33.4-18.7,33.4s19.7-21.5,21-25.4
	c1.2-3.9,8.1-5.7,9.6-7.1C285.8,177.1,289.9,169.8,288.6,168.1z M330.4,193.7c0-4.5-7.7-6.5-8.2-12.1c-0.5-5.6,6.5-8.5,7.1-15.4
	c0.6-6.9,14.2-38.8,27.9-52.1c2.1,9.5,0.7,31.4,0.7,31.4s10.7-33.8,11-56.1C386.7,64.1,393,64.9,399.3,56c6.4-8.9,12.7-9.9,18.8-14
	c6.1-4,12-6.8,16.5-5.3c4.5,1.6,9,7.3,8.5,13.5c-0.5,6.2,7.8,27.5,7.8,27.5s-7-9.4-9.4-14c-2.4-4.6-3.9-1.6-6.4,0.8
	c-2.5,2.4-7.1,6.9-9.4,6.7c-2.3-0.2-7.2-13.9-9-13.7c-1.8,0.2,0.1,14,2.5,17.9c2.4,3.9,6.7,9.8,6,13.9c-0.7,4,4.9,21.2,4.9,21.2
	s-8.8-12-11.1-19.2c0,0-4.3,6.5-5.8,6.6c-1.4,0.1-10.7-17.4-10.7-17.4s0.3,13.3,0.8,17.3c0.5,4,4.5,6.2,5,7.5
	c0.5,1.2-1.5,9.9,0.5,14.2c2,4.2,7.7,17,7.7,17l2.9-21.9c0,0,19.4-0.6,22.4,2.5c3,3.1-0.4,10.3,3,17.4c3.4,7.1,11.6,24.6,6.7,26.4
	c-5.2,2-6.3-2.5-11.6-13.3c-4.1,3.8-14.1,14.5-14.1,14.5l6.7,20.3c0,0-10.5-6.5-18.2-20c-7.8-13.5-11.5-16.8-11.5-16.8
	s5.9,16.4,7.8,25.3c1.9,8.9-4.3,25.8-4.3,25.8l37.6-14.6c0.3-0.7,0.6-1.3,1-2.1c6.5-12.6,11.9-17.2,17.6-22.1c1.2-1,2.4-2,3.6-3.2
	c2.3-2.1,3.2-4.5,4.3-7.5c1.7-4.6,3.9-10.2,11.3-14.8c2.2-1.3,5.4-3.1,9.2-5.1l-14.3-28l18.8,20.7l-3.5-14.5l12.7,14.8
	c4.6-2.3,9.1-4.5,13.1-6.4l-20-32c0,0,23.8,22.6,27.3,24.4c1.2,0.6,3.5-0.1,6.1-1.3c3.7-5.1,10-13.2,16.7-19.6
	c-7.1-3.5-18.5-9.3-27.2-15c0.5,4.8,1.9,11.9,5.6,19.4c-7-7.8-11.9-18.7-14.9-26.6c-4.5-4.2-9.3-9.4-14.3-15
	c-4.6-5.1-9.3-10.3-14.1-15c0.4,8.7,1.9,25.9,7.3,35.5c-14.4-16-11.5-26.6-11.8-31.2c-0.3-4.7-13.2-17.2-13.2-17.2
	s3.1,12.6,6.1,16.9c-6.8-9.9-19.2-29.1-35.6-26.4c-2.8,0.5,0,6.7,2.3,9.2c2.3,2.5,5.3,5.7,5.6,10.1c0.3,4.3,5.9,13.2,5.9,13.2
	s-6.8-6.2-9.3-11.2c-2.5-5-8.2-11.8-10.4-10.4c-1.2,0.8-6.2,4.3-11.2,7.6c-4.4,3.9-9.8,7.8-16.6,11.9c-10.2,6-25.8,27.3-37,44
	c-3.6,7.3-6.5,13.6-6.8,15.7c-0.6,5.9-16.2,23.5-20.7,30c-4.5,6.5-9.9,22.5-13.4,31.1c-3.4,8.5-23,41-23,41l15.2-16.5
	c0,0,3.6,5,5.1,7.8c1.6,2.8-8.7,23.3-16.9,30.8c-8.2,7.5-50.7,31.2-50.7,31.2c22.4-8.2,51.7-19.1,56.8-25.6
	C315.8,224.4,330.4,198.2,330.4,193.7z M370.5,174c-2.1,8.9-16.2,15.7-21.3,23c-5.2,7.2-8.3,36.9-8.3,36.9s9.1-28.6,12-32.9
	c2.9-4.3,23-16.2,23.4-21.8c0.4-5.7,2.1-33,3.5-45.3C379.9,133.7,372.6,165.1,370.5,174z M403.5,220.6c4.9-3.4,16.1-9,24.8-13.2
	c6.1-4.9,8.5-8.6,10.3-12.7c-8.2,4.6-26.7,14.9-35.1,19c-11.1,5.4-21.4,22.8-27,27.8c-5.6,5-42.1,23.9-42.1,23.9
	c19.9-5.3,44.6-16.3,48.8-20.6C387.3,240.5,394.9,226.6,403.5,220.6z M516.5,173.5c-19.9,10.9-25.9,13.9-29,19
	c-3.1,5.1-2.2,10-3.4,14.3c-1.2,4.3-5.4,12.9-5.3,16c0,0-21.5,13.4-31.9,32.5c10.4-10.4,23.2-21.7,29.8-24.4
	c6.6-2.7,11.8-10,13.4-19.8c1.6-9.7,0.9-13.3,3.2-15.5C495.5,193.2,516.5,173.5,516.5,173.5z M660.9,273.7
	c2.7-3.8,7.5-8.3,13.3-13.3c-3-4-7.5-10.8-10-18.7c-3.7-11.8-6.5-21.7-6.8-22.7c0.7,1.2,11.9,20.7,17.4,25.3c4.3,3.7,8,3.3,11.8,5.9
	c2.9-2.3,5.7-4.6,6.6-5.5c-3.2-9.4-9.9-29.2-9.5-29.2c0.5,0,10.5,8.7,16.1,13.6c3.3-8,7.4-17.1,12.3-23.6c0.5-0.7,1.2-1.2,2-1.5
	c10.9-4.4,21.6-13.1,31-20.8c1.8-1.4,3.4-2.8,5-4.1c-15-4.8-32.4-20.8-48.8-45.1c-4.5-4.1-12-8.6-20.8-13.8c-2.3-1.4-4.6-2.7-7-4.1
	l10.9,20.8c0,0-33.1-34.6-39.4-36.2c-2.5,8.2-2.2,18.8-2.2,18.8s5.6,3.5,7.6,14c2,10.5,7.3,21.3,7.3,21.3s-7.8-7.5-9.5-15.8
	c-1.7-8.4-14.5-17.7-14.7-22.7c-0.3-5,3.9-19.4,2-24.9c-1.8-5.4-10.5-22.5-40.2-25.6c-8.1,3.9-21.1,12.4-30,18.6
	c-8.8,6.2-15.5,15.1-20.5,21c-5,5.9-6.5,10.6-11.5,13.4c-5,2.8-38.5,17.6-42.6,20.2c-4.1,2.6-8.5,14.5-13.2,19.6
	c-1.8,1.9-3.8,3.1-5.8,3.9c-1.1,1-2.2,1.9-3.2,2.8c-2.3,2-4.4,3.8-6.5,6.1c-2.9,4.4-6.8,10.5-8.5,16.1c-2.2,7.6-4.2,14.1-9.9,17.5
	c-3.3,4.7-8.4,9.5-17.9,15.8c-2,1.3-4,2.8-6,4.4c-2.8,3.7-5,6.9-5.8,8.5c15.1-9.3,25.7-9.5,30.4-15.8c4.8-6.2,9.9-14.5,11-21.1
	c1-6.6,8.5-24,22.4-28.4V186c0,0,11-37.5,15.1-42c4.2-4.5,42.5-19.2,42.5-19.2s-8.6,19-29.4,28.4c29.6-6.6,30.2-15.3,35-26.7
	c4.8-11.4,5-12.6,10.8-16.8c5.8-4.2,4.1-10.4,7.8-13.7c3.7-3.3,23.8-17.8,31.3-19.9l-1.4,8.6c0,0,6,3.2,6.8,5.9
	c0.8,2.7,2.7,6.2,8.9,10.8c6,4.4,10.9,30.7,11.1,32.3l-13.2-23.9L598,117l-7.4-19.2c0.4,2.3,7.2,39.7,10.5,45.5
	c-0.8-1-6.7-9.4-8.4-9.7c-1.8-0.3-2.3,5-4.4,5.3c-2.1,0.2-5-3.5-5.8-12.2c-0.8-8.4-8.4-15.1-9.1-15.7c0.3,0.7,4.9,13.1,4.5,20.3
	c-0.4,7.4-1.7,10.1-0.4,13.2c1.2,3.1,6,1.7,7.1,5.2c1,3.4,17.8,59.5,18.8,63c-1.3-2.3-16.4-28.8-18-28.8c-1.7,0-8.9,11.4-8.9,13.7
	c0,2.3,6,3.9,6.2,7.8c0.2,3.9-2.5,12.2-2.5,17c0,4.6,9.3,26.9,9.9,28.3c-0.9-1.1-12.1-16.6-15.5-29.6c-3.5-13.5-9.5-16.8-9.8-23.2
	c-0.2-6.4-0.8-8.7-4.8-15.1c-3.9-6.4-6.8-11.6-6.8-17c-3.1,10.4,2.7,20.5,3.3,24.6c0.6,4.1-5.6,8.3-3.3,14.9
	c2.3,6.6,5.6,2.4,7.8,13.5c2.3,11.1-1.9,18-1.2,29.8c0.6,11.8,3.3,25.9,13.5,32.3l6.6,18.2c-0.5-0.8-8.2-13.9-12.2-14.9
	c-4.2-1-12.6-4.5-14.5-11.4c-1.9-6.8-5.4-17.8-11-25.2c6.2,21.5,2.9,32.5,5.4,38.5c2.5,6,10.2,4.8,10.2,4.8s-1,11.4,2.9,15.9
	c3.9,4.5,6,4.1,6,4.1s-3.1,6.9,1.7,16.2c4.8,9.3,7.1,20.3,7.1,20.3s0.8-14.1,5.2-18.6c4.4-4.5,13.3-10.8,16.4-21.5
	c3.1-10.8,2.1-14.1-1.7-15.3c-3.7-1.2-7.7-12.2-7.5-21.7c6.2,15.7,12,19.2,19.7,22.1l-3.7,37.1c0,0,6-11.6,11.4-19.1
	c5.4-7.5,5.6-12,11-13.9c5.4-1.9,10.1-4.4,10.1-4.4s2.7,8.3,7.9,8.5c0,0,1.6,0.1,3.5,0.2c2.4-3.6,4.2-7.1,5.7-10.5
	c-1.6-4.2-3.3-10.5-3.6-17.7c-0.4-13.2,5.8-18.2-7.7-35c10.6,4.1,15.9,18.6,16.2,26.3C658.3,267.8,659.6,271.1,660.9,273.7z
	 M691.5,264.1c1.4-2.5,3.2-6.1,4.8-9.3c-1.4,1.1-3.1,2.5-5.2,4.2c-7.7,6.2-20.7,16.5-23.1,21.4c-1.2,2.4-2.3,5-3.4,7.8
	c-0.2,0.5-0.4,0.9-0.6,1.4c6-9,9.8-11.3,14.1-13.8C682.7,273,688.3,269.7,691.5,264.1z M727.2,268.5c0,0-3.1,16.8-6.2,24.4
	c-3.1,7.6-20.6,12.5-23.2,15.4c-2.6,2.9,0,6.1-2.5,10.8c3.2-0.7,4.1-6.5,5.8-9.3c1.7-2.8,15.5-5.5,21.1-12.5
	C727.8,290.4,727,279.5,727.2,268.5z M966.9,320.6c-0.7-1.1-1.4-2.2-2.1-3.3c-0.2-0.3-0.3-0.5-0.3-0.6
	c-7.2-11.1-13.6-17.1-19.1-22.3c-4.7-4.5-9.2-8.7-13.1-15c-2.5-3.9-4.9-7.3-7.2-10.5c-4.4-6-8.2-11.4-9.9-17.6
	c-9.1-2-19-5.3-26.1-7.9c-0.2,0.8-0.2,1.6-0.2,2.2c0.9,6.2,10.4,12,14.3,17.2c3.8,5,14.3,28.5,14.9,30c-0.7-1-11.6-17.7-19.7-24.7
	c-8.3-7.2-11.2-5.5-14.9-9.1c-3.7-3.6-6.3-16.7-15.9-31.4c-9.7-14.7-8.4-22.4-11.7-25.2c-3.3-2.8-9.7-6.2-9.7-6.2s2.2,8,6.4,15.2
	c4.3,7.3,2.2,14.3,2,18c-0.2,3.6,7.5,15.3,7.9,16c-0.7-0.6-12.6-10.4-12.6-14.9c0-4.6,2.1-9.1-1.7-15.9
	c-3.7-6.9-10.6-19.2-12.8-24.4c-2.3-5.2-22.7-32.9-26.9-32.9c-0.4,0-0.8,0.1-1.2,0.2c-1.6,0.9-3.4,2-5.4,3.1c-4,2.9-8.6,7-12.8,9.1
	c-7,3.6-23.2,10.6-26.1,14.3c-3,3.7-6.2,6.9-10.9,10c-4.7,3.1-25.1,15.3-30.6,19.6c-5.6,4.3-7.1,10.6-10.1,15.1
	c-2.9,4.6-5.8,16.3-5.9,20.8c-0.1,4.5,0.7,6.9-1.5,12c-2.3,5.1-7,17.8-7.9,26.4c6.1-16.6,15.2-26.1,16.1-31.7
	c1-5.6,0.9-15.8,2.6-22.5c1.7-6.7,10-17.9,13.5-20.8c3.4-2.9,23-14.2,23-14.2s-3.9,5.9-2.6,9.9c1.3,3.9-10.9,17-11.7,17.8
	c0.9-0.7,15.6-12,15.7-15.7c0.1-3.8-0.4-5.9,3.3-9.9c3.7-4,10-11.1,12.9-15c2.9-3.9,9.9-5.6,20.2-10.4c10.3-4.8,13.8-10.8,16.5-9.9
	c2.7,0.8-0.7,7.4-1.2,12.9c-0.5,5.5-0.8,16.8,8.9,32.1c-9.3-8.6-21.9-25.5-22.8-26.8c0.5,1.3,5,11.7,8.1,19.9
	c3.2,8.5,20.7,37.6,21.6,39.2c-1.5-1.5-26.5-25.4-29.2-24.1c-2.8,1.4,6.2,13.4,6.2,13.4l-11.9,10.9l10.5,17.9
	c0,0-29.7-29.1-30.2-29.1c3.6,8.2,8.1,17,8.1,17l-13.5,12.8c1.1-0.2,14.2-2.7,17.2-0.2c3.1,2.6,12.1,13.3,18.5,15.7l-2.9,8.1
	l-12.6-9.5c0.4,0.9,7.7,14.3,12.8,19.9c5.3,5.8,7.6,10.9,7.6,10.9s-18.4-9.7-22.4-13.8c-3.9-4.2-12.3-12.8-15.1-12
	c-2.8,0.7-5,1.8-5.7,1c-0.7-0.7-12.9-14-13.7-14.9c0.4,1,6.9,17,10.2,20.5c3.4,3.6,7-2.6,9.5-0.5c2.6,2.1,11.6,10.4,11.6,10.4
	l-13.6,7.8l-9.8-11.6c0,0,2.2,16.6,6.5,24.8c4.4,8.2,6.4,9.8,6.3,12.3c-0.1,2.5-2.7,14.1-0.1,15.1c5.3,0.3,12.7-9.7,15.7-11.7
	c3-2-2.4-10.4-5.4-13.8c-3-3.3-2.5-5.3-1.4-5.6c1.2-0.3,13.3,7.7,15.1,7.8s7.8-6.9,12.4-9.2c4.5-2.3,15.6-3.8,15.6-3.8
	s-1.8-8.6-1.1-11.1c0.6-2.5,2.1-4.2,0.7-6.5c-1.4-2.3-0.6-4.2-1.1-6.7c-0.5-2.5-6-7.3-6-7.3s5.9,3,7.7,4.9c1.8,1.9,0.8,4.9,2.8,8.2
	c2,3.3,4.6,4,5.5,8c0.9,4,3.1,12,7.7,17.5c4.6,5.4,13.3,10.6,16.9,13.7c3.6,3.1,1.7,6,4,8.1c2.3,2,17.6,9.2,18.6,9.7
	c-0.7-0.7-9.4-9.4-10.2-14.7c-0.9-5.5,0.6-9.7-3-13c-3.6-3.3-6.4-2.9-11.3-9.6c-5-6.8-2.3-11.1-6.5-16.5
	c-4.3-5.5-8.7-17.7-11.6-20.1c-2.9-2.4-3.4,1-6.6-1.3c-3.2-2.4-18.5-22-18.5-22s18,15.4,20.6,16.5c2.6,1,6.4-0.2,8.9,1.9
	c2.4,2.2,6.6,10.4,6.6,10.4s0.1-8,1.6-12c1.5-4,3.9-8.1,3.9-8.1s-8.8-27.5-8.2-27.3c0.5,0.3,11.2,19.7,14.2,24.1
	c3,4.4-2.5,10.6-1.5,14.8c0.9,4.1,4.1,12.6,7.1,14.2c3,1.6-0.9,6.2,2.5,11.2c3.4,5,5.4,3.6,7.1,5.4c1.7,1.7,9.5,8.2,10.5,8.9
	c-0.9-0.8-8.4-7.8-10.2-14.8c-1.9-7.5,0.1-12.1-3-15.6c-3.1-3.6-3.7-6-3.7-6s5.9,6,10.5,9.6c4.6,3.7,14.2,14.5,16.2,19.4
	c1.9,4.9,13.4,14.6,19.1,20.1c5.7,5.5,7.1,9.1,9.7,10.5c2.6,1.5,6.2,1,9.9,3.4c3.7,2.5,13.9,10.4,13.9,10.4s-5.8-7.9-11.5-12.8
	c-5.7-4.9-5.8,0.7-12.4-8c-6.4-8.4-14.7-23.3-15.2-24.2l4.6,1.6c0,0,0.8-4.4,0-6.7c-0.8-2.3-9.9-9.4-15.3-23.3
	c9.1,12.7,11.9,15.4,16.9,18.1c5,2.7,16.3,22.8,19.3,25.5c3.1,2.7,10.1,4.7,11.5,4.4c1.5-0.2-0.2-14.3-6.6-22.5
	c-6-7.8-10.4-15.4-10.9-16.3c0.8,0.8,8.2,8.1,15,12.8c7.1,4.9,7.5,8.8,9.7,10.4c2.3,1.6,21,16.3,21,16.3L966.9,320.6z M679.6,191.8
	c0,0,12,20,12,19.6c0-0.5-6.5-29.5-6.5-29.5h-9l-15.5-19.4l15.4,31.8L679.6,191.8z"/>
</svg>
