<svg xmlns="http://www.w3.org/2000/svg" viewBox="0 0 72 72"><defs><style>.cls-1{fill:#fff;}.cls-2{fill:#6a3f24;}</style></defs><g id="Layer_2" data-name="Layer 2"><g id="Layer_1-2" data-name="Layer 1"><rect class="cls-1" width="72" height="72" rx="5.17"/><path class="cls-2" d="M66.76,2H5.59A3.63,3.63,0,0,0,2,5.59V66.76a3.64,3.64,0,0,0,3.63,3.63H66.76a3.63,3.63,0,0,0,3.63-3.63V5.59A3.64,3.64,0,0,0,66.76,2Z"/><path class="cls-1" d="M41.48,10.62A4.38,4.38,0,1,1,37.1,6.25a4.38,4.38,0,0,1,4.38,4.37m1.15,16.11a48,48,0,0,1-2.08-7.13c-.69-4.38-8.74-4.61-9.43.23S23,55.65,21.91,59.19c-1.84,6.22,5.29,7.14,6.44,2.77s5.3-21.87,5.3-21.87l5.06,21.17c1.84,6,7.6,3.92,6.22-1.61-.87-3.46-4.61-17-4.61-17L37.79,29l2.07,1.84s2.94.75,6.22,1.84C53,35,51.72,29,47.46,28c-1.57-.38-4.83-1.25-4.83-1.25M56.19,21.9a1.38,1.38,0,0,0-2.72-.46l-7.14,41.9a1.38,1.38,0,1,0,2.72.46l7.14-41.9M25,13.39a1.45,1.45,0,0,0-1.61.92c-.46,1.15-2.07,10.13-2.76,12s.46,3,1.38,3,1.15.46,2.76.69,2.07-.23,2.3-1.84,3.23-11.52,3.23-11.52.47-1.94-.69-2.14S25,13.39,25,13.39"/></g></g></svg>