<?xml version="1.0" encoding="utf-8"?>
<!-- Generator: Adobe Illustrator 24.0.2, SVG Export Plug-In . SVG Version: 6.00 Build 0)  -->
<svg version="1.1" id="Capa_1" xmlns="http://www.w3.org/2000/svg" xmlns:xlink="http://www.w3.org/1999/xlink" x="0px" y="0px"
	 viewBox="0 0 512 512" style="enable-background:new 0 0 512 512;" xml:space="preserve">
<style type="text/css">
	.st0{fill:#C1E3A0;}
	.st1{fill:#A8D4A4;}
	.st2{fill:#C9DBFD;}
	.st3{fill:#AECAFC;}
	.st4{fill:#756E79;}
	.st5{fill:#817D84;}
	.st6{fill:#EDF6FF;}
	.st7{fill:#D8E2F3;}
	.st8{fill:#6C626F;}
</style>
<g>
	<g>
		<path class="st0" d="M338.8,73.8h118.3c6.4,0,10.3,6.9,7.2,12.4l-23.7,41.5c-1.5,2.5-1.5,5.7,0,8.2l23.7,41.5
			c3.2,5.5-0.8,12.4-7.2,12.4H355.9c-8.9,0-16.6-6.9-17-15.8L338.8,73.8z"/>
		<path class="st1" d="M440.6,135.9c-1.5-2.5-1.5-5.7,0-8.2l23.7-41.5c3.2-5.5-0.8-12.4-7.2-12.4h-23c6.4,0,10.3,6.9,7.2,12.4
			l-23.7,41.5c-1.5,2.5-1.5,5.7,0,8.2l23.7,41.5c3.2,5.5-0.8,12.4-7.2,12.4h23c6.4,0,10.3-6.9,7.2-12.4L440.6,135.9z"/>
		<g>
			<path class="st0" d="M267.6,24.1h87.8c9.1,0,16.6,7.4,16.6,16.6V140c0-9.1-7.4-16.6-16.6-16.6h-87.8L267.6,24.1L267.6,24.1z"/>
			<path class="st1" d="M338.9,174c-0.4-9.5,7.1-17.4,16.5-17.4c9.1,0,16.6-7.4,16.6-16.6s-7.4-16.6-16.6-16.6h-16.6L338.9,174z"/>
		</g>
		<path class="st2" d="M239.4,239.7V15.8c0-4.6,3.7-8.3,8.3-8.3h16.6c4.6,0,8.3,3.7,8.3,8.3v223.9H239.4z"/>
		<path class="st3" d="M264.3,7.5h-16.6c-1.1,0-2.2,0.2-3.2,0.6c3,1.3,11.5,4.2,11.5,7.6v223.9h16.6V15.8
			C272.6,11.2,268.9,7.5,264.3,7.5z"/>
		<path class="st4" d="M161.3,348.4L139.7,316c-3.3-4.9-10.5-4.9-13.8,0L8.9,491.6c-3.7,5.5,0.3,12.9,6.9,12.9h480.4
			c6.6,0,10.6-7.4,6.9-12.9L386,316c-3.3-4.9-10.5-4.9-13.8,0l-21.5,32.3L161.3,348.4z"/>
		<path class="st5" d="M446.5,492.1L338.8,330.5L256,275.4l-82.8,55.1L65.5,492.1c-3.5,5.3,0.3,12.4,6.7,12.4h367.7
			C446.2,504.5,450.1,497.4,446.5,492.1z"/>
		<path class="st4" d="M446.5,492.1L336.8,327.5L297.5,303l126,189c3.5,5.3-0.3,12.4-6.7,12.4h23
			C446.2,504.5,450.1,497.4,446.5,492.1L446.5,492.1z"/>
		<path class="st6" d="M262.9,216.6c-3.3-4.9-10.5-4.9-13.8,0l-75.9,113.9l45.3-22.6c2.7-1.4,6-1.1,8.4,0.8l24.4,18.3
			c2.8,2.1,6.8,2.1,9.6,0l24.4-18.3c2.4-1.8,5.7-2.1,8.4-0.8l45.3,22.6L262.9,216.6z"/>
		<path class="st7" d="M304.3,313.3l34.5,17.3l-75.9-113.9c-3.3-4.9-10.5-4.9-13.8,0l-4.6,6.9L304.3,313.3z"/>
		<path class="st8" d="M503.1,491.6L386,316c-3.3-4.9-10.5-4.9-13.8,0l-4.6,6.9L480,491.6c3.7,5.5-0.3,12.9-6.9,12.9h23
			C502.8,504.5,506.8,497.1,503.1,491.6z"/>
	</g>
	<path d="M509.3,487.5L509.3,487.5l-117-175.6c-2.9-4.4-7.8-7-13.1-7c-5.3,0-10.2,2.6-13.1,7l-15.3,23l-70.6-106V131h51.3
		c0,0,0,43,0,43.4c0.6,12.8,11.4,22.9,24.5,22.9h101.2c5.7,0,10.8-2.9,13.7-7.9c2.9-4.9,2.9-10.8,0.1-15.8l-23.7-41.5
		c-0.1-0.2-0.1-0.5,0-0.8L471,89.8c2.8-4.9,2.8-10.8-0.1-15.8c-2.9-4.9-8-7.9-13.7-7.9h-77.6V40.6c0-13.3-10.8-24.1-24.1-24.1h-75.3
		v-0.8C280.1,7.1,273,0,264.3,0h-16.6c-8.7,0-15.8,7.1-15.8,15.8v58v11v144.1l-70.6,106l-15.3-23c-2.9-4.4-7.8-7-13.1-7
		s-10.2,2.6-13.1,7L2.7,487.5c-3.2,4.9-3.5,11.1-0.8,16.2c2.8,5.1,8.1,8.3,13.9,8.3h123h5.7h351.7c5.8,0,11.2-3.2,13.9-8.3
		C512.9,498.5,512.6,492.3,509.3,487.5z M379.5,140V81.3h77.6c0.1,0,0.5,0,0.7,0.4s0.1,0.7,0,0.8L434.1,124
		c-2.8,4.8-2.8,10.8,0,15.7l23.7,41.5c0.1,0.1,0.2,0.4,0,0.8c-0.2,0.4-0.5,0.4-0.7,0.4H355.9c-5,0-9.3-3.9-9.5-8.6
		c-0.1-2.5,0.8-4.9,2.5-6.7s4.1-2.8,6.6-2.8C368.7,164.1,379.5,153.3,379.5,140z M346.3,150.9V131h9.1c5,0,9.1,4.1,9.1,9.1
		s-4.1,9.1-9.1,9.1C352.3,149.1,349.2,149.7,346.3,150.9z M280.1,31.6h75.3c5,0,9.1,4.1,9.1,9.1v77.1c-2.8-1.1-5.9-1.8-9.1-1.8
		h-75.3L280.1,31.6L280.1,31.6z M246.9,15.8c0-0.4,0.4-0.8,0.8-0.8h16.6c0.4,0,0.8,0.4,0.8,0.8v192.5c-2.6-1.8-5.8-2.9-9.1-2.9
		c-3.3,0-6.5,1-9.1,2.9V84.8v-11L246.9,15.8L246.9,15.8z M255.3,220.8c0.1-0.1,0.2-0.4,0.7-0.4c0.4,0,0.6,0.3,0.7,0.4l60.3,90.4
		L292.5,299c-2.5-1.3-5.6-1-7.9,0.7L256,321.2l-28.6-21.5c-2.3-1.7-5.3-2-7.9-0.7l-24.4,12.2L255.3,220.8z M15.8,497
		c-0.2,0-0.5,0-0.7-0.4s0-0.7,0-0.8l117.1-175.6c0.1-0.1,0.2-0.3,0.7-0.3c0.4,0,0.6,0.3,0.7,0.3l18.8,28.2L53.2,497H15.8z
		 M144.5,497h-5.7H71.2l107.1-160.6l43.8-21.9l29.4,22.1c2.7,2,6.3,2,9,0l29.4-22.1l43.8,21.9L440.8,497H144.5z M496.9,496.6
		c-0.2,0.4-0.5,0.4-0.7,0.4h-37.4l-99.1-148.6l18.8-28.2c0.1-0.1,0.2-0.3,0.7-0.3c0.4,0,0.6,0.3,0.7,0.3L497,495.8
		C496.9,495.9,497.1,496.2,496.9,496.6z"/>
</g>
</svg>
