<?xml version="1.0" encoding="utf-8"?>
<!-- Generator: Adobe Illustrator 24.0.2, SVG Export Plug-In . SVG Version: 6.00 Build 0)  -->
<svg version="1.1" id="Layer_1" xmlns="http://www.w3.org/2000/svg" xmlns:xlink="http://www.w3.org/1999/xlink" x="0px" y="0px"
	 viewBox="0 0 612 288" style="enable-background:new 0 0 612 288;" xml:space="preserve">
<style type="text/css">
	.st0{fill:none;stroke:#000000;stroke-width:4.5;stroke-miterlimit:10;}
</style>
<g>
	<g>
		<path d="M72,145.8l7.9-9.3c6.7,6.3,15.5,10.4,25,10.4c11.1,0,17.2-5.1,17.2-12.2c0-8.6-6.4-10.9-15.1-14.6l-12.4-5.4
			c-8.9-3.5-18.8-10-18.8-22.9c0-13.7,12.3-24,29.6-24c10.8,0,20.7,4.3,27.5,11l-6.9,8.6c-5.9-4.9-12.2-7.8-21.2-7.8
			c-9.2,0-15.4,4.3-15.4,11.4c0,7.6,7.6,10.4,15.3,13.4l11.9,5.2c11,4.3,19.2,10.7,19.2,23.5c0,14.1-11.9,25.5-31.7,25.5
			C91.6,158.7,80.2,153.8,72,145.8z"/>
		<path d="M153.9,123.8V69.5h13.5v55c0,16.1,6.8,22.4,16.7,22.4c10,0,17-6.3,17-22.4v-55h13v54.3c0,24.5-11.8,34.9-29.9,34.9
			C165.9,158.7,153.9,148.3,153.9,123.8z"/>
		<path d="M233.3,69.5h15.5l11.3,35.8l3.9,13.6h0.5l3.8-13.6l11.4-35.8h15.5v87.6H283v-39.5c0-8.9,1.4-25.5,2.1-33.5h-0.4l-5.4,18.7
			l-11.1,31h-8.4l-10.9-31l-5.4-18.7h-0.3c0.9,8,2.1,24.6,2.1,33.5v39.5h-12V69.5z"/>
		<path d="M313.5,69.5H329l11.3,35.8l3.9,13.6h0.5l3.8-13.6L360,69.5h15.5v87.6h-12.2v-39.5c0-8.9,1.4-25.5,2.1-33.5h-0.4l-5.4,18.7
			l-11.1,31H340l-10.9-31l-5.4-18.7h-0.3c0.9,8,2.1,24.6,2.1,33.5v39.5h-12V69.5z"/>
		<path d="M396.6,145.8H418v-65h-21.4V69.5h56.3v11.3h-21.4v65h21.4v11.3h-56.3V145.8z"/>
		<path d="M498.3,80.8H470V69.5h70v11.3h-28.3v76.3h-13.4V80.8z"/>
	</g>
	<g>
		<path d="M233.3,199.1c0-13.2,7.9-21.2,18.6-21.2c5,0,8.9,2.4,11.4,5l-3.5,3.9c-2.1-2.1-4.6-3.5-7.9-3.5c-7.2,0-12.1,5.9-12.1,15.5
			c0,9.8,4.9,15.8,12.2,15.8c3.5,0,6.3-1.6,8.7-4.2l3.5,3.8c-3.2,3.8-7.4,5.9-12.8,5.9C241.2,220.1,233.3,212.5,233.3,199.1z"/>
		<path d="M274.6,178.7h6.2v35.4h19.6v5.3h-25.8V178.7z"/>
		<path d="M308.6,203.9v-25.2h6.3v25.6c0,7.5,3.2,10.4,7.8,10.4c4.6,0,7.9-2.9,7.9-10.4v-25.6h6v25.2c0,11.4-5.5,16.2-13.9,16.2
			C314.2,220.1,308.6,215.3,308.6,203.9z"/>
		<path d="M347,178.7h12.1c8.4,0,14.2,2.7,14.2,10c0,3.9-2.3,7.6-7.1,8.9v0.2c5.9,1,9.3,4.2,9.3,9.7c0,8.1-6.4,11.9-15.4,11.9H347
			V178.7z M358.3,195.6c6.3,0,8.9-2.1,8.9-6.3c0-4.1-2.9-5.6-8.7-5.6h-5.4v11.9H358.3z M359.3,214.3c6.4,0,10.1-2.2,10.1-7.2
			c0-4.7-3.5-6.6-10.1-6.6h-6.1v13.8H359.3z"/>
	</g>
	<line class="st0" x1="101.3" y1="199" x2="216.8" y2="199"/>
	<line class="st0" x1="390.1" y1="199" x2="505.6" y2="199"/>
</g>
<g>
	<path d="M558,54v180H54V54H558 M562.5,36h-513C42,36,36,42,36,49.5v189c0,7.5,6,13.5,13.5,13.5h513c7.5,0,13.5-6,13.5-13.5v-189
		C576,42,570,36,562.5,36L562.5,36z"/>
</g>
</svg>
